<svg width="38" height="38" viewBox="0 0 38 38" fill="none" xmlns="http://www.w3.org/2000/svg">
<circle cx="19" cy="19" r="19" fill="#F5F7FA"/>
<path d="M13.9996 11C12.9388 11 11.9215 11.4214 11.1715 12.1716C10.4214 12.9217 10 13.9391 10 15V23C10 24.0609 10.4214 25.0783 11.1715 25.8284C11.9215 26.5786 12.9388 27 13.9996 27H20.9989C21.2641 27 21.5184 26.8946 21.7059 26.7071C21.8935 26.5196 21.9988 26.2652 21.9988 26C21.9988 25.7348 21.8935 25.4804 21.7059 25.2929C21.5184 25.1054 21.2641 25 20.9989 25H13.9996C13.4692 25 12.9606 24.7893 12.5855 24.4142C12.2105 24.0391 11.9998 23.5304 11.9998 23V15C11.9998 14.4696 12.2105 13.9609 12.5855 13.5858C12.9606 13.2107 13.4692 13 13.9996 13H20.9989C21.2641 13 21.5184 12.8946 21.7059 12.7071C21.8935 12.5196 21.9988 12.2652 21.9988 12C21.9988 11.7348 21.8935 11.4804 21.7059 11.2929C21.5184 11.1054 21.2641 11 20.9989 11H13.9996ZM23.7066 14.292C23.6137 14.199 23.5033 14.1253 23.3818 14.075C23.2604 14.0246 23.1302 13.9987 22.9987 13.9987C22.8672 13.9987 22.737 14.0246 22.6156 14.075C22.4941 14.1253 22.3837 14.199 22.2908 14.292C22.1978 14.385 22.1241 14.4954 22.0738 14.6168C22.0234 14.7383 21.9975 14.8685 21.9975 15C21.9975 15.1315 22.0234 15.2617 22.0738 15.3832C22.1241 15.5046 22.1978 15.615 22.2908 15.708L24.5846 18H15.9994C15.7342 18 15.4799 18.1054 15.2924 18.2929C15.1049 18.4804 14.9995 18.7348 14.9995 19C14.9995 19.2652 15.1049 19.5196 15.2924 19.7071C15.4799 19.8946 15.7342 20 15.9994 20H24.5846L22.2908 22.292C22.1978 22.385 22.1241 22.4954 22.0738 22.6168C22.0234 22.7383 21.9975 22.8685 21.9975 23C21.9975 23.1315 22.0234 23.2617 22.0738 23.3832C22.1241 23.5046 22.1978 23.615 22.2908 23.708C22.3837 23.801 22.4941 23.8747 22.6156 23.925C22.737 23.9754 22.8672 24.0013 22.9987 24.0013C23.1302 24.0013 23.2604 23.9754 23.3818 23.925C23.5033 23.8747 23.6137 23.801 23.7066 23.708L27.7062 19.708C27.7994 19.6151 27.8732 19.5048 27.9236 19.3833C27.9741 19.2618 28 19.1315 28 19C28 18.8685 27.9741 18.7382 27.9236 18.6167C27.8732 18.4952 27.7994 18.3849 27.7062 18.292L23.7066 14.292Z" fill="#19416E"/>
</svg>
