<svg width="16" height="16" viewBox="0 0 16 16" fill="none" xmlns="http://www.w3.org/2000/svg">
<g opacity="0.6">
<path d="M6.2002 8.4001C6.2002 7.92271 6.38984 7.46487 6.7274 7.12731C7.06497 6.78974 7.52281 6.6001 8.0002 6.6001C8.47758 6.6001 8.93542 6.78974 9.27299 7.12731C9.61055 7.46487 9.8002 7.92271 9.8002 8.4001C9.8002 8.87749 9.61055 9.33532 9.27299 9.67289C8.93542 10.0105 8.47758 10.2001 8.0002 10.2001C7.52281 10.2001 7.06497 10.0105 6.7274 9.67289C6.38984 9.33532 6.2002 8.87749 6.2002 8.4001Z" fill="#19416E"/>
<path fill-rule="evenodd" clip-rule="evenodd" d="M0 8.4C0 9.712 0.34 10.1528 1.02 11.0368C2.3776 12.8 4.6544 14.8 8 14.8C11.3456 14.8 13.6224 12.8 14.98 11.0368C15.66 10.1536 16 9.7112 16 8.4C16 7.088 15.66 6.6472 14.98 5.7632C13.6224 4 11.3456 2 8 2C4.6544 2 2.3776 4 1.02 5.7632C0.34 6.648 0 7.0888 0 8.4ZM8 5.4C7.20435 5.4 6.44129 5.71607 5.87868 6.27868C5.31607 6.84129 5 7.60435 5 8.4C5 9.19565 5.31607 9.95871 5.87868 10.5213C6.44129 11.0839 7.20435 11.4 8 11.4C8.79565 11.4 9.55871 11.0839 10.1213 10.5213C10.6839 9.95871 11 9.19565 11 8.4C11 7.60435 10.6839 6.84129 10.1213 6.27868C9.55871 5.71607 8.79565 5.4 8 5.4Z" fill="#19416E"/>
<path d="M1 15L15 1" stroke="#19416E" stroke-width="2" stroke-linecap="round"/>
</g>
</svg>
