<svg width="16" height="14" viewBox="0 0 16 14" fill="none" xmlns="http://www.w3.org/2000/svg">
<g opacity="0.6">
<path d="M6.2 7.40001C6.2 6.92262 6.38964 6.46478 6.7272 6.12721C7.06477 5.78965 7.52261 5.60001 8 5.60001C8.47739 5.60001 8.93522 5.78965 9.27279 6.12721C9.61035 6.46478 9.8 6.92262 9.8 7.40001C9.8 7.8774 9.61035 8.33523 9.27279 8.6728C8.93522 9.01036 8.47739 9.20001 8 9.20001C7.52261 9.20001 7.06477 9.01036 6.7272 8.6728C6.38964 8.33523 6.2 7.8774 6.2 7.40001Z" fill="#19416E"/>
<path fill-rule="evenodd" clip-rule="evenodd" d="M0 7.4C0 8.712 0.34 9.1528 1.02 10.0368C2.3776 11.8 4.6544 13.8 8 13.8C11.3456 13.8 13.6224 11.8 14.98 10.0368C15.66 9.1536 16 8.7112 16 7.4C16 6.088 15.66 5.6472 14.98 4.7632C13.6224 3 11.3456 1 8 1C4.6544 1 2.3776 3 1.02 4.7632C0.34 5.648 0 6.0888 0 7.4ZM8 4.4C7.20435 4.4 6.44129 4.71607 5.87868 5.27868C5.31607 5.84129 5 6.60435 5 7.4C5 8.19565 5.31607 8.95871 5.87868 9.52132C6.44129 10.0839 7.20435 10.4 8 10.4C8.79565 10.4 9.55871 10.0839 10.1213 9.52132C10.6839 8.95871 11 8.19565 11 7.4C11 6.60435 10.6839 5.84129 10.1213 5.27868C9.55871 4.71607 8.79565 4.4 8 4.4Z" fill="#19416E"/>
</g>
</svg>
