<?xml version="1.0" encoding="UTF-8"?>
<!DOCTYPE svg PUBLIC "-//W3C//DTD SVG 1.1//EN" "http://www.w3.org/Graphics/SVG/1.1/DTD/svg11.dtd">
<!-- Creator: CorelDRAW 2018 (64-Bit) -->
<svg xmlns="http://www.w3.org/2000/svg" xml:space="preserve" width="91.2198mm" height="96.3848mm" version="1.1" style="shape-rendering:geometricPrecision; text-rendering:geometricPrecision; image-rendering:optimizeQuality; fill-rule:evenodd; clip-rule:evenodd"
viewBox="0 0 2279.61 2408.68"
 xmlns:xlink="http://www.w3.org/1999/xlink">
 <defs>
  <style type="text/css">
   <![CDATA[
    .str0 {stroke:#FEFEFE;stroke-width:1.9;stroke-miterlimit:22.9256}
    .fil0 {fill:#FEFEFE}
    .fil1 {fill:#FEFEFE;fill-rule:nonzero}
   ]]>
  </style>
 </defs>
 <g id="Layer_x0020_1">
  <metadata id="CorelCorpID_0Corel-Layer"/>
  <path class="fil0" d="M574.54 1046.21c91.33,-9.74 115.78,90.98 115.78,90.98 0,0 -25.73,11.93 -45.86,17.79 -20.14,5.85 -45.3,6.7 -77.19,-13.67 -31.66,-20.26 -59.27,-28.58 -59.27,-28.58 0,0 24.61,-62.04 66.55,-66.52zm552.05 -1046.21c46.84,0 92.74,4.17 137.41,12.08 -44.72,-7.32 -90.59,-11.19 -137.37,-11.19 -47.36,0 -93.79,3.97 -139.03,11.46 45.16,-8.09 91.59,-12.35 138.99,-12.35zm31.8 1673.57c-10.56,0.42 -21.15,0.7 -31.8,0.7 -45.34,0 -89.79,-3.92 -133.09,-11.33 1.23,-36.29 3.64,-72.35 7.1,-107.96 7.14,-73.56 18.17,-145.68 31.31,-216.92 6.58,-35.6 13.69,-71 21.24,-106.2 3.77,-17.61 7.64,-35.18 11.61,-52.7l11.82 -51.62c4.86,-22.02 9.25,-44.18 13.24,-66.43 -0.08,-2.72 -0.18,-5.45 -0.48,-8.26 -1.44,-13.9 -5.34,-28.7 -11.09,-43.26 -11.56,-29.23 -30.09,-57.58 -52.94,-82.26 -22.9,-24.73 -50.34,-46.12 -81.45,-61.29 -31,-15.15 -66.08,-23.85 -102.24,-21.77l-0.5 -3.31c35.49,-9.62 74.5,-8.59 111.45,0.83 37.09,9.37 72.39,26.51 104.25,49.08 18.09,12.9 35.14,27.6 50.76,44.16 0.44,-4.19 0.9,-8.38 1.29,-12.58 6.52,-69.12 8.74,-138.84 5.36,-208.37 -3.48,-69.49 -12.42,-138.99 -30.58,-206.37 -9.13,-33.65 -20.62,-66.73 -35.46,-98.41 -14.85,-31.65 -33.11,-61.96 -55.98,-88.96l2.56 -2.45c26.11,24.44 48.39,53.16 67.34,83.83 18.99,30.71 34.82,63.42 48.25,97.02 26.81,67.34 44.42,138.12 56.39,209.62 11.87,71.57 17.96,144.1 19.54,216.8 1.54,72.71 -1.48,145.64 -8.89,218.43l-2.34 21.4c3.8,-4.56 7.63,-9.06 11.59,-13.48 27.66,-30.9 59.08,-58.09 93.13,-80.8 34.03,-22.76 70.6,-41.08 108.38,-55.06 37.79,-14.03 76.79,-23.73 116.02,-29.79 78.61,-12.12 157.89,-9.79 235.01,1.27l-0.32 3.35c-77.55,-3.51 -155.49,2.05 -229.45,21 -73.85,18.79 -143.47,51.63 -200.57,98.62 -28.56,23.39 -53.93,50.2 -75.41,79.55 -21.5,29.36 -39.09,61.27 -52.51,94.69 -10.5,26.19 -18.41,53.33 -23.78,80.84 -4.12,65.78 -6.26,131.28 -4.97,195.86 0.76,37.92 2.75,75.39 6.19,112.48zm-708.57 -694.47c0,0 -8.96,-35.79 35.78,-73.82 44.75,-38.03 104.03,4.47 104.03,4.47 0,0 -16.78,29.09 -46.63,62.27 -29.86,33.16 -93.18,7.09 -93.18,7.09zm126.4 -251.68c82.77,5.87 136.47,80.53 136.47,80.53 0,0 -58.17,38.03 -121.93,53.7 -63.76,15.65 -127.51,-73.83 -127.51,-73.83 0,0 28.64,-66.38 112.97,-60.4zm-69.36 -172.27c0,0 66,20.14 90.6,45.86 24.61,25.73 23.49,105.15 23.49,105.15 0,-0 -45.87,-6.72 -100.67,-33.62 -54.81,-26.89 -13.42,-117.39 -13.42,-117.39zm133.12 -33.55c0,0 38.04,-2.24 85.01,13.42 47.04,15.66 99.62,44.74 116.4,112.98 16.78,68.23 65.97,175.62 65.97,175.62 0,0 -158.85,-29.08 -230.48,-97.05 -71.59,-67.97 -36.9,-204.97 -36.9,-204.97zm48.1 -187.92c0,0 45.86,16.78 76.11,48.09 30.21,31.33 -10.07,139.83 -10.07,139.83 0,0 -80.6,-22.38 -111.91,-83.9 -31.33,-61.52 45.86,-104.02 45.86,-104.02zm283.05 46.98c66,46.97 86.14,198.27 86.14,198.27 0,0 -100.68,-11.47 -180.09,-46.15 -79.43,-34.68 -82.78,-172.26 -82.78,-172.26 0,0 110.73,-26.84 176.73,20.14zm-118.21 -149.23c0,0 27.61,-15.17 59.3,-14.31 80.92,2.19 61.35,116.56 61.35,116.56 0,0 -54.2,-3.07 -94.07,-26.59 -39.88,-23.53 -26.59,-75.66 -26.59,-75.66zm236.62 506.41c2.4,42.53 -4.49,127.03 -4.49,127.03 0,0 -84.15,-52.67 -125.6,-99.64 -41.43,-46.96 39.73,-147.72 39.73,-147.72 0,0 86.22,47.22 90.35,120.34zm-217.96 -127.03c10.07,-27.42 54.8,-33.28 54.8,-33.28 0,0 36.49,64.53 14.55,95.02 -28.58,39.73 -35.73,60.46 -35.73,60.46l2.16 -6.43c0,0 -53.4,-67.79 -35.79,-115.76zm22.35 309.01c0,0 -18.99,44.74 -112.96,88.36 -94.01,43.63 -186.86,-27.97 -186.86,-27.97 0,-0 14.54,-86.13 97.51,-120.81 83.04,-34.67 202.31,60.41 202.31,60.41zm143.21 89.49c45.86,57.05 -31.46,271.83 -31.46,271.83 0,0 -51.32,-38.04 -117.32,-117.45 -65.99,-79.43 16.27,-229.31 16.27,-229.31 0,0 86.65,17.9 132.52,74.94zm-60.68 503.62c0,0 -51.63,-27.16 -95.19,-38.14 -43.57,-10.98 -51.59,-107.97 -51.59,-107.97 0,0 77.85,-22.17 129.37,9.49 37.61,23.1 17.41,136.62 17.41,136.62zm-217.56 -483.37c0,0 64.58,23.37 69.06,45.74 5.92,29.54 11.19,85.01 11.19,85.01 0,0 -77.83,4.84 -95.16,-29.06 -30.18,-59.29 14.91,-101.69 14.91,-101.69zm-179.32 211.66c0,0 76.06,-71.95 176.5,-64.77 100.37,7.18 174.8,138.23 174.8,138.23 0,-0 -16.79,-2.23 -52.57,0 -35.8,2.25 -42.51,31.33 -144.73,34.68 -102.15,3.36 -153.99,-108.14 -153.99,-108.14zm569.07 -1054.08c0,0 10.42,27.97 24.96,50.34 14.54,22.36 8.94,69.35 -17.9,102.91 -26.85,33.56 -48.1,81.66 -48.1,81.66 0,0 -45.86,-70.48 -62.65,-143.9 -16.78,-73.43 103.68,-91.01 103.68,-91.01zm76.19 202.73c79.6,-33.22 141.02,14.25 141.02,14.25 0,0 -23.36,24.76 -28.51,60.88 -5.16,36.12 -47.43,71.49 -95.94,77.49 -48.5,6 -64.11,10.35 -64.11,10.35 0,-0 -11.33,-138.4 47.54,-162.98zm10.83 -173.81c50.34,-34.68 102.38,-14.37 102.38,-14.37 0,0 32.44,70.47 -14.54,102.91 -46.99,32.45 -90.61,55.93 -90.61,55.93 0,0 -42.74,-113.13 2.76,-144.47zm219.84 226.97c39.43,-0.06 59.56,37.03 59.56,37.03 0,0 -20.13,52.74 -53.69,54.43 -33.55,1.67 -86.41,-13.99 -86.41,-13.99 0,-0 24.28,-77.39 80.55,-77.47zm4.03 -193.24c0,0 60.84,22.37 91.04,60.4 30.21,38.03 0,145.43 0,145.43 0,0 -63.76,-38.04 -110.75,-87.26 -46.98,-49.22 19.7,-118.57 19.7,-118.57zm128.7 195.76c24.73,-52.94 64.41,-48.66 64.41,-48.66 0,0 19.31,26.85 31.89,76.34 12.58,49.5 -52.02,105.71 -52.02,105.71 0,0 -71.3,-75.51 -44.28,-133.4zm180.19 156.88c0,0 2.51,55.38 -46.15,72.16 -48.66,16.77 -104.02,15.1 -104.02,15.1 0,0 -0.84,-97.32 58.73,-104.87 59.57,-7.56 91.44,17.61 91.44,17.61zm-57.33 241.42c-67.75,15.36 -118.57,25.04 -118.57,25.04 0,0 15.46,-39.28 25.12,-78.34 6.32,-25.53 39.8,-71.42 100.79,-70.65 60.98,0.77 64.36,0 64.36,0 0,0 -3.95,108.6 -71.71,123.96zm119.42 32.19c0,0 -20.15,52.74 -53.7,54.43 -33.56,1.66 -86.41,-13.99 -86.41,-13.99 0,0 24.27,-77.39 80.53,-77.46 39.43,-0.07 59.58,37.02 59.58,37.02zm-36.4 237.3c0,0 -0.09,-0.76 -0.31,-2.08 -2.68,2.63 -10.3,8.16 -31.53,16.04 -46.9,17.4 -83.7,-7.08 -104.44,-29.7 -20.75,-22.62 -68.29,-46.59 -68.29,-46.59 79.79,-28.18 129.24,-18.3 129.24,-18.3 60.78,12.29 73.11,67.19 75.02,78.55 1.18,-1.17 1.42,-1.78 1.42,-1.78l-1.11 3.86zm-200.47 194.08c-11.83,6.15 -24.61,21.81 -62.08,25.73 -35.33,3.69 -78.86,-35.79 -78.86,-35.79 42.51,-81.67 111.86,-59.6 131.43,-46.98 28.03,18.06 40.83,50.34 40.83,50.34 0,-0 -12.94,-2.85 -31.32,6.7zm-227.08 164.44c-62.09,6.15 -101.79,-5.6 -138.7,-6.16 -36.91,-0.56 -47.54,0.56 -58.17,10.63 0,0 19.01,-126.41 93.41,-163.87 79.13,-39.85 166.1,-1.12 197.43,29.08 31.33,30.21 35.8,36.37 35.8,36.37 0,0 -67.68,87.8 -129.76,93.96zm-96.75 -277.97c10.63,-35.23 45.3,-72.72 85.58,-74.95 40.26,-2.24 93.39,-17.35 93.39,-17.35 31.89,91.17 -12.86,132.57 -59.28,150.47 -46.42,17.9 -132,7.82 -132,7.82 0,0 1.68,-30.76 12.31,-65.99zm280.77 -82.77c43.07,-6.16 69.91,6.14 69.91,6.14 0,0 -3.36,77.19 -52.58,76.63 -49.21,-0.55 -66,-12.31 -66,-12.31 0,0 5.59,-64.32 48.66,-70.46zm-324.95 -492.1c1.14,2.31 3.81,7.71 23.6,7.71 4.86,-0 9.82,-0.3 14.63,-0.59 0.8,-0.05 1.61,-0.1 2.4,-0.15 -0.21,-0.41 -19.68,-36.7 -19.68,-36.7l38.83 10.68c1.2,0.33 29.79,8.33 49.67,25.47 19.74,17.03 40.48,27.18 55.47,27.18 18.64,0 42.23,-14.64 56.79,-27.18 19.58,-16.89 47.33,-24.67 50.44,-25.5l38.21 -10.25c0,0 -18.93,35.85 -19.16,36.28 0.92,0.05 1.85,0.11 2.78,0.16 4.85,0.29 9.85,0.6 14.71,0.6 19.96,-0 22.63,-5.4 23.76,-7.71l22.29 -45 10.1 49.19c1.06,5.12 24.94,126.02 -45.85,174.56 -23.41,16.05 -49.89,24.19 -78.72,24.19 -0,0 0,0 -0,0 -22.8,0 -42.28,-5.22 -54.6,-9.58l-21.39 29.6 -19.33 -29.33c-12.19,4.32 -31.06,9.32 -53.15,9.32 -28.55,0 -54.9,-8.14 -78.31,-24.19 -70.79,-48.54 -46.9,-169.44 -45.84,-174.56l10.09 -49.2 22.29 45.01zm60.48 245.22c-8.81,88.3 75.62,94.23 70.1,106.09 -2.57,5.52 -56.66,0.28 -91.16,-37.45 -24.9,-27.22 -38.82,-50.19 -41.31,-77.24 -4.31,-46.78 67.46,-42.36 62.37,8.6zm53.08 -15.21c0,7.04 -7.87,12.75 -17.58,12.75 -9.71,0 -17.58,-5.7 -17.58,-12.74 0,-7.04 7.87,-12.74 17.58,-12.74 9.71,0 17.58,5.7 17.58,12.74zm46.45 6.61c0,7.04 -7.87,12.74 -17.58,12.74 -9.71,0 -17.59,-5.7 -17.59,-12.74 0,-7.04 7.88,-12.74 17.59,-12.74 9.71,0 17.58,5.7 17.58,12.74zm6.21 23.62c11.71,0 21.21,6.88 21.21,15.37 0,8.49 -9.5,15.37 -21.21,15.37 -11.71,0 -21.21,-6.88 -21.21,-15.37 0,-8.5 9.5,-15.37 21.22,-15.37zm40.24 -23.62c0,7.04 -7.87,12.74 -17.58,12.74 -9.71,0 -17.6,-5.7 -17.6,-12.74 0,-7.04 7.88,-12.74 17.6,-12.74 9.71,0 17.58,5.7 17.58,12.74zm15.78 20.31c11.73,0 21.22,6.88 21.22,15.38 0,8.49 -9.49,15.37 -21.22,15.37 -11.7,0 -21.19,-6.88 -21.19,-15.37 0,-8.49 9.49,-15.38 21.19,-15.38zm30.66 -26.92c0,7.04 -7.87,12.75 -17.57,12.75 -9.72,0 -17.59,-5.7 -17.59,-12.74 0,-7.04 7.87,-12.74 17.59,-12.74 9.7,0 17.57,5.7 17.57,12.74zm-88.33 103.51c8.74,0 15.81,5.13 15.81,11.46 0,6.33 -7.07,11.46 -15.81,11.46 -8.73,-0 -15.81,-5.13 -15.81,-11.46 0,-6.33 7.07,-11.46 15.81,-11.46zm-54.39 -76.59c11.71,0 21.21,6.88 21.21,15.38 0,8.49 -9.5,15.37 -21.21,15.37 -11.71,0 -21.21,-6.88 -21.21,-15.37 0,-8.49 9.5,-15.38 21.21,-15.38zm11.89 55.81c0,-7.41 8.3,-13.43 18.53,-13.43 10.25,0 18.53,6.01 18.53,13.43 0,7.42 -8.28,13.43 -18.53,13.43 -10.22,0 -18.53,-6.01 -18.53,-13.43zm67.49 -13.43c10.23,0 18.51,6.01 18.51,13.43 0,7.42 -8.28,13.43 -18.51,13.43 -10.23,0 -18.53,-6.01 -18.53,-13.43 0,-7.42 8.3,-13.43 18.53,-13.43zm81.84 -54.09c-5.1,-50.96 66.7,-55.38 62.38,-8.6 -2.49,27.04 -16.43,50.01 -41.32,77.24 -34.5,37.73 -88.59,42.97 -91.16,37.45 -5.52,-11.87 78.92,-17.79 70.1,-106.09zm-60.82 -136.15c5.58,0 10.1,4.53 10.1,10.11 0,5.59 -4.52,10.11 -10.1,10.11 -5.59,0 -10.12,-4.52 -10.12,-10.11 0,-5.59 4.53,-10.11 10.12,-10.11zm13.18 52.97c-16.58,0 -30.82,-9.98 -37.09,-24.26 4.33,6.12 11.43,10.12 19.5,10.12 13.19,0 23.87,-10.69 23.87,-23.87 0,-13.19 -10.68,-23.87 -23.87,-23.87 -10.4,0 -19.25,6.67 -22.5,15.97 2.64,-19.81 19.57,-35.1 40.1,-35.1 22.37,0 40.49,18.13 40.49,40.5 0,22.36 -18.13,40.49 -40.49,40.49zm-75.04 -40.49c0,0.42 -0.05,0.83 -0.06,1.24 -0.65,-12.6 -11.05,-22.62 -23.82,-22.62 -13.18,0 -23.87,10.68 -23.87,23.87 0,13.18 10.69,23.87 23.87,23.87 10.31,0 19.07,-6.54 22.41,-15.69 -4.69,17.18 -20.36,29.83 -39.03,29.83 -22.37,0 -40.49,-18.13 -40.49,-40.49 0,-22.37 18.13,-40.5 40.49,-40.5 22.37,0 40.51,18.13 40.51,40.5zm-28.88 -12.48c5.58,0 10.1,4.53 10.1,10.11 0,5.59 -4.52,10.11 -10.1,10.11 -5.59,0 -10.11,-4.52 -10.11,-10.11 0,-5.59 4.53,-10.11 10.11,-10.11zm151.06 -83.65c-12.43,6.51 5.7,-27.82 5.7,-27.82 0,0 -26.47,7.11 -43.64,21.9 -17.16,14.79 -44.37,31.37 -68.05,31.37 -23.67,-0 -49.56,-16.57 -66.73,-31.37 -17.17,-14.8 -42.99,-21.9 -42.99,-21.9 0,0 18.47,34.34 6.03,27.82 -12.42,-6.51 -62.34,11.24 -76.69,-17.76 0,0 -23.45,114.24 38.69,156.85 62.16,42.62 128.27,7.7 128.27,7.7l13.42 20.38 14.74 -20.38c0,0 67.42,34.92 129.56,-7.7 62.17,-42.61 38.71,-156.85 38.71,-156.85 -14.37,29 -64.59,11.25 -77.02,17.76z"/>
  <path class="fil0 str0" d="M1139.8 15.15c459.14,0 831.35,372.21 831.35,831.34 0,459.14 -372.21,831.35 -831.35,831.35 -459.14,0 -831.34,-372.21 -831.34,-831.35 0,-459.14 372.21,-831.34 831.34,-831.34zm0 25.19c445.22,0 806.15,360.93 806.15,806.15 0,445.22 -360.93,806.15 -806.15,806.15 -445.22,0 -806.15,-360.93 -806.15,-806.15 0,-445.22 360.93,-806.15 806.15,-806.15z"/>
  <path class="fil1" d="M275.43 2316.56c0,5.86 2.17,10.49 6.52,13.89 4.35,3.4 9.92,5.1 16.72,5.1 12.1,0 23.91,-2.74 35.43,-8.22l0 -21.82 0 -7.09c0,-6.05 -0.47,-10.39 -1.42,-13.04 -1.51,-4.16 -4.63,-7.56 -9.35,-10.21l47.33 -0.85c-3.59,2.27 -6.28,5.05 -8.08,8.36 -1.79,3.31 -2.69,8.93 -2.69,16.87l0 6.24 0 67.75 0 7.08c0,6.05 0.61,10.77 1.84,14.17 1.23,3.4 4.21,6.42 8.93,9.07l-47.33 0.85c4.72,-3.02 7.84,-6.71 9.35,-11.05 0.94,-2.84 1.42,-7.46 1.42,-13.89l0 -6.24 0 -27.49c-6.24,2.64 -13.13,4.82 -20.69,6.52 -7.56,1.7 -15.02,2.55 -22.39,2.55 -10.77,0 -19.84,-2.46 -27.21,-7.37 -9.45,-6.24 -14.17,-15.59 -14.17,-28.06l0 -14.17 0 -7.09c0,-6.05 -0.47,-10.39 -1.42,-13.04 -1.51,-4.16 -4.63,-7.56 -9.35,-10.21l47.34 -0.85c-3.59,2.27 -6.28,5.05 -8.08,8.36 -1.79,3.31 -2.69,8.93 -2.69,16.87l0 6.24 0 10.77zm228.8 92.12c-10.77,0 -19.37,-2.08 -25.79,-6.24 -7.75,-4.96 -11.62,-12.75 -11.62,-23.34l0 -44.97c-3.59,1.89 -7.93,3.59 -13.04,5.15 -3.02,0.94 -7.75,2.17 -14.17,3.69 -9.82,2.27 -16.34,4.35 -19.56,6.28 -6.24,3.78 -9.35,9.59 -9.35,17.34 0,8.17 3.21,14.26 9.64,18.23 5.48,3.45 12.57,5.15 21.26,5.15 3.02,0 5.53,-0.19 7.51,-0.61 1.98,-0.38 6.29,-1.61 12.9,-3.64l-16.72 21.54c-5.29,0.94 -10.2,1.42 -14.74,1.42 -14.17,0 -25.79,-3.97 -34.86,-11.95 -9.07,-7.94 -13.61,-17.91 -13.61,-29.81 0,-14.97 7.28,-25.56 21.83,-31.84 2.27,-0.94 15.87,-4.35 40.82,-10.2 14.74,-3.4 22.11,-9.21 22.11,-17.34 0,-6.05 -3.21,-10.82 -9.64,-14.22 -5.1,-2.65 -10.96,-3.97 -17.58,-3.97 -6.42,0 -13.04,1.13 -19.84,3.4 -3.97,1.32 -10.2,3.97 -18.71,7.93l18.99 -28.34 18.43 -1.7c17.2,0 30.05,2.83 38.55,8.5 10.39,7.04 15.59,18.57 15.59,34.68l0 42.61c0,10.25 0.38,16.77 1.13,19.6 2.08,7.79 9.73,12.42 22.96,13.93l-12.47 18.71zm126.48 -105.44c-4.54,-4.53 -9.87,-7.98 -16.01,-10.34 -6.14,-2.36 -12.62,-3.54 -19.42,-3.54 -13.79,0 -25.13,4.35 -34.01,13.08 -8.88,8.69 -13.32,19.79 -13.32,33.26 0,16.11 5.72,29.2 17.15,39.21 11.43,10.07 25.37,15.07 41.81,15.07 7.37,0 14.65,-1.27 21.83,-3.78 7.18,-2.5 13.7,-5.95 19.56,-10.39l-13.89 27.16c-5.48,2.08 -11.34,3.59 -17.57,4.44 -6.24,0.85 -12.85,1.28 -19.84,1.28 -22.11,0 -40.58,-6.24 -55.42,-18.76 -14.83,-12.47 -22.25,-28.11 -22.25,-46.86 0,-23.1 8.13,-41.29 24.38,-54.52 14.74,-11.95 33.54,-17.9 56.41,-17.9 10.39,0 20.6,1.13 30.61,3.4l0 29.19zm46.83 -11.34l-9.36 0c-13.04,0 -24.28,4.34 -33.73,13.04l9.07 -32.31c1.51,0.47 3.64,0.85 6.38,1.08 2.74,0.24 4.49,0.47 5.24,0.62l78.8 0c3.02,0 5.48,-0.14 7.37,-0.38 1.89,-0.24 3.78,-0.66 5.67,-1.32l-8.22 32.31c-2.08,-4.82 -5.43,-8.22 -10.06,-10.16 -4.63,-1.93 -9.68,-2.88 -15.16,-2.88l-10.2 0 0 81.63 0 7.08c0,6.05 0.61,10.77 1.84,14.17 1.23,3.4 4.2,6.42 8.93,9.07l-47.34 0.85c4.73,-3.02 7.84,-6.71 9.35,-11.05 0.95,-2.84 1.42,-7.46 1.42,-13.89l0 -6.52 0 -81.35zm201.59 81.63l0 7.08c0,6.05 0.61,10.77 1.84,14.17 1.23,3.4 4.2,6.42 8.93,9.07l-47.33 0.85c4.72,-3.02 7.84,-6.75 9.35,-11.1 0.94,-2.84 1.41,-7.51 1.41,-13.94l0 -6.29 0 -30.19 -64.34 0 0 30.19 0 7.13c0,6.05 0.61,10.82 1.84,14.22 1.23,3.4 4.2,6.47 8.93,9.12l-47.33 0.85c4.72,-3.02 7.84,-6.71 9.35,-11.05 0.94,-2.84 1.42,-7.46 1.42,-13.89l0 -6.52 0 -67.74 0 -6.8c0,-6.24 -0.47,-10.68 -1.42,-13.32 -1.51,-4.16 -4.63,-7.56 -9.35,-10.21l47.33 -0.85c-4.72,3.02 -7.7,6.28 -8.93,9.87 -1.23,3.54 -1.84,8.55 -1.84,14.93l0 6.19 0 19.18 64.34 0 0 -19.18 0 -7.04c0,-6 -0.47,-10.34 -1.41,-12.94 -1.51,-4.16 -4.63,-7.51 -9.35,-10.16l47.33 -0.85c-3.59,2.27 -6.28,5.05 -8.08,8.36 -1.79,3.31 -2.69,8.93 -2.69,16.87l0 6.24 0 67.75zm144.05 35.15c-10.77,0 -19.37,-2.08 -25.79,-6.24 -7.75,-4.96 -11.62,-12.75 -11.62,-23.34l0 -44.97c-3.59,1.89 -7.94,3.59 -13.04,5.15 -3.02,0.94 -7.75,2.17 -14.17,3.69 -9.82,2.27 -16.34,4.35 -19.56,6.28 -6.24,3.78 -9.35,9.59 -9.35,17.34 0,8.17 3.21,14.26 9.64,18.23 5.48,3.45 12.57,5.15 21.26,5.15 3.02,0 5.53,-0.19 7.51,-0.61 1.98,-0.38 6.29,-1.61 12.9,-3.64l-16.72 21.54c-5.29,0.94 -10.2,1.42 -14.74,1.42 -14.17,0 -25.79,-3.97 -34.86,-11.95 -9.07,-7.94 -13.61,-17.91 -13.61,-29.81 0,-14.97 7.28,-25.56 21.83,-31.84 2.27,-0.94 15.87,-4.35 40.82,-10.2 14.74,-3.4 22.11,-9.21 22.11,-17.34 0,-6.05 -3.21,-10.82 -9.64,-14.22 -5.1,-2.65 -10.96,-3.97 -17.58,-3.97 -6.42,0 -13.04,1.13 -19.84,3.4 -3.97,1.32 -10.2,3.97 -18.71,7.93l18.99 -28.34 18.43 -1.7c17.2,0 30.05,2.83 38.55,8.5 10.39,7.04 15.59,18.57 15.59,34.68l0 42.61c0,10.25 0.38,16.77 1.13,19.6 2.08,7.79 9.73,12.42 22.96,13.93l-12.47 18.71zm100.4 -116.5l-19.27 -1.7c-7.18,-0.57 -13.18,0.85 -18,4.25 -4.82,3.4 -7.23,8.5 -7.23,15.31 0,6.99 3.68,12.75 11.05,17.29 6.24,3.97 13.79,6.42 22.68,7.37l4.82 0.57c-8.88,14.17 -17.29,26.74 -25.23,37.7 -7.18,9.82 -12.9,16.86 -17.15,21.12 -4.25,4.25 -8.31,7.27 -12.19,9.07 -3.87,1.79 -8.74,2.69 -14.6,2.69l-22.39 -1.13c10.2,-4.72 21.64,-15.12 34.3,-31.18l24.38 -30.9c-8.88,-2.83 -16.16,-6.9 -21.82,-12.19 -6.8,-6.42 -10.21,-13.98 -10.21,-22.68 0,-10.96 3.78,-19.27 11.34,-24.94 7.56,-5.67 18.33,-8.5 32.31,-8.5l63.78 0c-3.59,2.27 -6.29,5.05 -8.08,8.36 -1.79,3.31 -2.69,8.93 -2.69,16.87l0 6.24 0 67.75 0 7.08c0,6.05 0.62,10.77 1.84,14.17 1.23,3.4 4.2,6.42 8.93,9.07l-47.34 0.85c4.73,-3.02 7.84,-6.71 9.35,-11.05 0.94,-2.84 1.42,-7.46 1.42,-13.89l0 -6.24 0 -81.35zm187.36 112.53c4.72,-2.83 7.84,-6.71 9.35,-11.62 0.94,-3.21 1.42,-8.69 1.42,-16.44l0 -73.98c0,-8.31 -0.38,-13.79 -1.13,-16.44 -1.32,-4.54 -4.54,-8.22 -9.64,-11.06l47.33 -0.85c-4.72,3.02 -7.7,6.52 -8.93,10.49 -1.23,3.97 -1.84,9.92 -1.84,17.86l0 82.77c1.7,0.37 3.88,0.66 6.52,0.85 2.65,0.19 6.42,0.28 11.34,0.28 4.72,0 8.46,-0.09 11.2,-0.28 2.74,-0.19 5.06,-0.47 6.94,-0.85l0 -82.77c0,-8.31 -0.38,-13.79 -1.13,-16.44 -1.32,-4.54 -4.54,-8.22 -9.64,-11.06l47.34 -0.85c-4.73,3.02 -7.7,6.52 -8.93,10.49 -1.23,3.97 -1.84,9.92 -1.84,17.86l0 82.77c1.7,0.37 3.88,0.66 6.52,0.85 2.65,0.19 6.42,0.28 11.34,0.28 4.72,0 8.46,-0.09 11.2,-0.28 2.74,-0.19 5.06,-0.47 6.94,-0.85l0 -82.77c0,-7.93 -0.56,-13.84 -1.7,-17.71 -1.13,-3.88 -4.16,-7.13 -9.07,-9.78l47.33 -0.85c-4.91,3.21 -7.94,6.75 -9.07,10.63 -1.13,3.87 -1.7,9.68 -1.7,17.43l0 74.26c0,8.12 0.52,14.03 1.56,17.72 1.04,3.69 4.11,6.85 9.21,9.5l-170.92 0.85zm233.33 -130.38c-4.25,3.4 -7.04,6.8 -8.41,10.2 -1.37,3.4 -2.08,7.56 -2.08,12.47 0,3.78 0,6.71 0,8.79l0 67.46 0 7.08c0,6.24 0.61,11.06 1.84,14.46 1.23,3.4 4.3,6.42 9.21,9.07l-47.34 0.85c4.35,-2.83 7.18,-6.09 8.5,-9.78 1.32,-3.69 1.98,-8.27 1.98,-13.75l0 -7.94 0 -67.46 0 -7.93c0,-5.86 -0.47,-10.11 -1.42,-12.76 -1.51,-3.97 -4.54,-7.27 -9.07,-9.92l46.77 -0.85zm-5.1 57.54l23.48 -25.84c4.44,-4.91 7.46,-8.36 8.97,-10.44 3.88,-5.1 5.81,-9.16 5.81,-12.19 0,-1.89 -0.52,-3.45 -1.51,-4.68 -0.99,-1.23 -2.36,-2.41 -4.16,-3.54l43.08 -0.85 -47.43 54.8 34.49 43.98c7.6,9.97 12.09,15.68 13.42,17.2 5.15,5.86 10.72,10.63 16.82,14.41l-22.11 0c-7.18,0 -13.32,-1.7 -18.42,-5.1 -3.78,-2.46 -7.27,-6.05 -10.49,-10.77l-41.95 -56.97zm86.79 8.93c0,-20.83 7.23,-37.75 21.68,-50.69 14.46,-12.99 32.27,-19.46 53.43,-19.46 9.64,0 18.24,1.27 25.79,3.83 7.56,2.55 14.83,6.94 21.83,13.23 6.99,6.24 12.57,13.84 16.72,22.87 4.16,8.97 6.24,18.23 6.24,27.68 0,20.27 -7.23,37.09 -21.68,50.41 -14.45,13.37 -31.89,20.03 -52.3,20.03 -19.84,0 -36.75,-6.33 -50.74,-19.04 -13.98,-12.66 -20.98,-28.96 -20.98,-48.85zm117.06 3.4c0,-14.98 -3.69,-27.54 -11.05,-37.79 -8.32,-11.39 -19.65,-17.05 -34.01,-17.05 -13.04,0 -23.53,4.39 -31.46,13.23 -7.94,8.79 -11.91,19.84 -11.91,33.11 0,14.22 3.78,26.5 11.34,36.94 8.31,11.58 19.37,17.34 33.16,17.34 13.04,0 23.62,-4.35 31.75,-13.09 8.13,-8.69 12.19,-19.6 12.19,-32.69zm118.4 32.97l-25.89 -68.78 -24.52 65.38c-8.46,22.53 -20.17,33.78 -35.05,33.78l-11.34 -21.54 4.54 0c5.67,0 10.02,-0.99 13.04,-2.93 3.02,-1.94 5.76,-5.67 8.22,-11.24l26.93 -66.89c1.32,-3.4 2.55,-6.71 3.68,-9.92 1.13,-3.21 1.7,-6.05 1.7,-8.5 0,-5.29 -2.65,-9.07 -7.94,-11.34l37.13 -0.85 0 4.25c0,1.13 0.28,2.64 0.85,4.53 1.7,4.54 2.74,7.37 3.12,8.5l29.76 79.93c3.78,10.58 7.27,18.28 10.49,23.1 3.21,4.82 6.71,7.98 10.49,9.49l-47.33 0.57c4.34,-2.08 6.52,-5.39 6.52,-9.92 0,-3.64 -1.47,-9.5 -4.4,-17.62zm166.86 31.51c-10.77,0 -19.37,-2.08 -25.79,-6.24 -7.75,-4.96 -11.62,-12.75 -11.62,-23.34l0 -44.97c-3.59,1.89 -7.94,3.59 -13.04,5.15 -3.02,0.94 -7.75,2.17 -14.17,3.69 -9.83,2.27 -16.35,4.35 -19.56,6.28 -6.23,3.78 -9.35,9.59 -9.35,17.34 0,8.17 3.21,14.26 9.64,18.23 5.48,3.45 12.57,5.15 21.26,5.15 3.02,0 5.53,-0.19 7.51,-0.61 1.98,-0.38 6.29,-1.61 12.9,-3.64l-16.72 21.54c-5.29,0.94 -10.21,1.42 -14.74,1.42 -14.17,0 -25.79,-3.97 -34.86,-11.95 -9.07,-7.94 -13.61,-17.91 -13.61,-29.81 0,-14.97 7.27,-25.56 21.83,-31.84 2.27,-0.94 15.87,-4.35 40.82,-10.2 14.74,-3.4 22.11,-9.21 22.11,-17.34 0,-6.05 -3.21,-10.82 -9.64,-14.22 -5.1,-2.65 -10.96,-3.97 -17.57,-3.97 -6.42,0 -13.04,1.13 -19.84,3.4 -3.97,1.32 -10.2,3.97 -18.71,7.93l18.99 -28.34 18.43 -1.7c17.2,0 30.05,2.83 38.55,8.5 10.39,7.04 15.59,18.57 15.59,34.68l0 42.61c0,10.25 0.38,16.77 1.13,19.6 2.08,7.79 9.73,12.42 22.96,13.93l-12.47 18.71z"/>
  <path class="fil1" d="M14.3 2145.55l2.63 0c5.77,0 11.16,-3.07 16.18,-9.22 3.51,-4.45 6.9,-10.6 10.16,-18.5l59.46 -154.67c1.5,-4.2 2.88,-8.15 4.14,-11.73 1.25,-3.58 1.88,-6.52 1.88,-8.78 0,-3.45 -0.81,-6.27 -2.44,-8.53 -1.63,-2.26 -4.71,-3.95 -9.22,-5.21l59.27 -1.13c0.25,1.76 0.38,3.39 0.38,4.83 1.25,8.47 4.52,19.69 9.72,33.62l57.02 153.86c3.76,10.03 7.4,18.5 10.91,25.47l19.25 0 -14.3 51.99c-3.51,-7.52 -7.78,-12.92 -12.8,-16.12 -6.77,-4.27 -16.56,-6.4 -29.35,-6.4l-141.5 0c-14.8,0 -26.84,2.38 -36.13,7.15 -4.52,2.45 -11.04,7.59 -19.57,15.37l14.3 -51.99zm42.9 2.38l135.48 0 -64.41 -178.89 -53.94 148.84c-5.58,14.55 -11.29,24.53 -17.12,30.05zm277.85 -65.86l-19.63 53.12c-2.07,5.27 -3.58,9.6 -4.64,12.92 -1,3.39 -1.5,6.71 -1.5,9.97 0,3.51 1.06,6.58 3.2,9.22 2.13,2.63 5.58,4.83 10.35,6.58l-69.25 1.13c9.53,-5.27 17.31,-13.17 23.33,-23.71 2.51,-4.52 6.9,-14.8 13.17,-30.86l62.85 -156.93c1.76,-4.71 3.2,-8.78 4.33,-12.11 1.13,-3.32 1.69,-6.27 1.69,-8.78 0,-3.45 -0.81,-6.27 -2.45,-8.53 -1.63,-2.26 -4.71,-3.95 -9.22,-5.21l59.46 -1.13 78.28 192.68c6.27,15.81 10.79,25.97 13.55,30.48 6.02,10.54 13.8,18.19 23.33,22.96l-77.15 1.13c9.03,-4.52 13.55,-9.28 13.55,-14.36 0,-3.01 -1.07,-7.27 -3.26,-12.8 -2.2,-5.58 -3.76,-9.85 -4.71,-12.86l-20.32 -52.94 -94.96 0zm46.73 -122.75l-37.2 94.9 74.14 0 -36.94 -94.9zm253.32 -31.55c25.34,0 46.04,5.83 62.09,17.44 16.06,11.67 24.09,27.72 24.09,48.23 0,20.76 -8.22,37.7 -24.65,50.87 -16.43,13.11 -35.81,19.69 -58.14,19.69 -6.27,0 -11.23,-0.31 -14.86,-0.94 -3.64,-0.63 -7.84,-2.07 -12.61,-4.33 17.31,0 32.61,-5.14 45.91,-15.37 14.3,-10.98 21.45,-25.15 21.45,-42.4 0,-15.49 -4.89,-27.03 -14.68,-34.69 -9.78,-7.59 -22.71,-11.42 -38.76,-11.42 -8.78,0 -17.56,0.75 -26.34,2.26l0 169.41c0,13.3 0.75,22.45 2.26,27.47 2.51,8.21 8.28,14.87 17.31,19.88l-74.89 1.13c7.02,-3.01 11.79,-9.03 14.3,-18.06 1.76,-6.52 2.63,-15.18 2.63,-25.97l0 -8.66 0 -141.88 0 -9.03c0,-11.29 -0.75,-19.69 -2.26,-25.22 -2.51,-8.78 -7.28,-14.68 -14.3,-17.69l91.45 -0.75zm383.41 120.8c0,37.89 -13.55,69.43 -40.64,94.65 -27.1,25.22 -59.71,37.82 -97.85,37.82 -38.39,0 -70.62,-12.04 -96.72,-36.13 -27.09,-24.84 -40.64,-56.33 -40.64,-94.46 0,-35.88 13.61,-66.42 40.83,-91.64 27.22,-25.21 60.65,-37.82 100.29,-37.82 38.63,0 71,12.8 97.09,38.39 25.09,24.59 37.64,54.32 37.64,89.19zm-232.95 -1.5c0,27.85 8.66,52.18 25.97,73.01 18.82,22.58 42.28,33.87 70.38,33.87 28.1,0 50.74,-9.22 67.93,-27.66 17.19,-18.44 25.78,-41.83 25.78,-70.19 0,-29.1 -8.28,-53.94 -24.84,-74.51 -18.06,-22.33 -41.27,-33.49 -69.62,-33.49 -28.6,0 -51.68,9.28 -69.25,27.85 -17.56,18.57 -26.34,42.27 -26.34,71.13zm281.05 -66.67l0 -11.67c0,-10.03 -0.88,-17.94 -2.63,-23.65 -2.51,-8.28 -7.15,-13.67 -13.92,-16.18l89.19 -1.13c24.59,0 43.84,4.89 57.77,14.61 13.92,9.78 20.89,23.02 20.89,39.77 0,11.98 -3.51,22.14 -10.54,30.36 -6.02,7.02 -15.05,13.11 -27.09,18.38 17.81,3.76 32.24,11.17 43.28,22.2 12.04,12.04 18.07,26.85 18.07,44.41 0,13.8 -4.26,26.66 -12.8,38.57 -8.53,11.92 -19.32,21.01 -32.36,27.28 -11.29,5.52 -25.09,9.03 -41.4,10.54 -8.03,0.75 -22.33,1.13 -42.9,1.13l-62.09 0c6.77,-3.01 11.42,-8.91 13.92,-17.69 1.75,-6.21 2.63,-14.74 2.63,-25.53l0 -9.78 0 -141.63zm71.12 167.53c1.76,0.25 4.39,0.37 7.9,0.37 15.3,0 27.85,-3.76 37.63,-11.29 11.04,-8.53 16.56,-20.57 16.56,-36.13 0,-16.81 -7.28,-29.73 -21.83,-38.76 -12.55,-7.78 -28.1,-11.67 -46.66,-11.67l-26.34 1.51 0 92.95 32.74 3.01zm-20.32 -120.81c15.3,0 28.22,-2.63 38.76,-7.84 13.8,-6.77 20.7,-17.12 20.7,-31.11 0,-11.48 -4.14,-20.57 -12.42,-27.35 -8.28,-6.71 -18.06,-10.1 -29.36,-10.1 -2.26,0 -3.89,0 -4.89,0l-25.21 2.63 0 73.76 12.42 0zm216.88 54.95l-19.63 53.12c-2.07,5.27 -3.58,9.6 -4.64,12.92 -1,3.39 -1.5,6.71 -1.5,9.97 0,3.51 1.06,6.58 3.2,9.22 2.13,2.63 5.58,4.83 10.35,6.58l-69.25 1.13c9.53,-5.27 17.31,-13.17 23.33,-23.71 2.51,-4.52 6.9,-14.8 13.17,-30.86l62.85 -156.93c1.75,-4.71 3.2,-8.78 4.33,-12.11 1.13,-3.32 1.69,-6.27 1.69,-8.78 0,-3.45 -0.81,-6.27 -2.45,-8.53 -1.63,-2.26 -4.71,-3.95 -9.22,-5.21l59.46 -1.13 78.28 192.68c6.27,15.81 10.79,25.97 13.55,30.48 6.02,10.54 13.8,18.19 23.33,22.96l-77.15 1.13c9.03,-4.52 13.55,-9.28 13.55,-14.36 0,-3.01 -1.07,-7.27 -3.26,-12.8 -2.19,-5.58 -3.76,-9.85 -4.7,-12.86l-20.32 -52.94 -94.96 0zm46.73 -122.75l-37.2 94.9 74.14 0 -36.94 -94.9zm212.3 94.9l0 68.12 0 9.03c0,11.29 0.75,19.69 2.26,25.22 2.51,8.78 7.27,14.55 14.3,17.31l-71.5 1.13c6.77,-3.01 11.42,-8.91 13.92,-17.69 1.76,-6.21 2.63,-14.61 2.63,-25.15l0 -9.78 0 -142 0 -11.67c0,-10.03 -0.88,-17.94 -2.63,-23.65 -2.51,-8.28 -7.15,-13.67 -13.92,-16.18l71.5 -1.13c-6.77,3.01 -11.23,8.22 -13.36,15.74 -2.13,7.53 -3.2,16.62 -3.2,27.34l0 9.79 0 46.48 135.86 0 0 -46.48 0 -11.98c0,-10.03 -0.88,-17.88 -2.63,-23.65 -2.51,-8.28 -7.15,-13.61 -13.92,-16.12l71.88 -1.13c-7.02,3.01 -11.6,8.47 -13.74,16.37 -2.13,7.84 -3.2,17.06 -3.2,27.6l0 8.66 0 142 0 9.03c0,11.54 0.75,19.94 2.26,25.15 2.51,8.78 7.4,14.55 14.68,17.31l-71.88 1.13c5.52,-2.51 9.66,-6.65 12.42,-12.42 2.76,-5.77 4.14,-15.68 4.14,-29.73l0 -10.54 0 -68.12 -135.86 0zm418.41 71.82l0 -147.34 -120.99 165.34c-8.97,11.48 -16.87,20.07 -23.65,25.84 -8.47,7.21 -18.88,12.8 -31.11,16.81l0 -210.81c0,-13.55 -0.75,-22.7 -2.26,-27.47 -2.51,-7.96 -8.28,-14.61 -17.31,-19.88l77.52 -0.75c-9.03,5.77 -14.8,12.67 -17.31,20.63 -1.5,5.02 -2.26,14.3 -2.26,27.79l0 142.38 126.64 -173.74 5.21 -7.65c2.7,-3.01 4.52,-6.15 5.52,-9.41l54.94 0c-6.77,4.27 -11.23,9.72 -13.36,16.37 -2.13,6.58 -3.2,13.92 -3.2,21.95l0 10.16 0 149.91 0 13.92c0,8.03 1.07,14.61 3.2,19.88 2.13,5.27 6.71,9.91 13.74,13.92l-77.9 1.13c9.28,-6.02 15.56,-13.04 18.82,-21.07 2.51,-6.34 3.76,-15.62 3.76,-27.91zm150.46 17.75l47.79 4.52c1.75,0 4.52,0 8.28,0 23.83,0 44.28,-7.53 61.34,-22.58l-15.81 49.3 -156.93 0c7.02,-3.01 11.79,-9.03 14.3,-18.06 1.75,-6.46 2.63,-15.12 2.63,-25.9l0 -8.66 0 -141.63 0 -9.41c0,-11.54 -0.75,-19.94 -2.26,-25.15 -2.51,-8.78 -7.4,-14.55 -14.68,-17.31l120.43 -1.13 7.15 0c4.52,0 8.03,-0.75 10.54,-2.26l1.13 44.41c-5.77,-6.02 -12.36,-10.04 -19.76,-12.04 -7.4,-2.01 -15.99,-3.01 -25.78,-3.01 -8.78,0 -15.87,0.19 -21.26,0.56 -5.39,0.38 -11.1,1.07 -17.12,2.07l0 69.62 44.78 0c2.76,0 5.58,-0.06 8.47,-0.19 2.89,-0.13 5.58,-0.81 8.09,-2.07l1.13 39.89c-3.26,-4.77 -7.59,-7.71 -12.98,-8.84 -5.39,-1.13 -12.61,-1.69 -21.64,-1.69l-27.85 0 0 89.57z"/>
 </g>
</svg>
