<svg width="38" height="38" viewBox="0 0 38 38" fill="none" xmlns="http://www.w3.org/2000/svg">
<circle cx="19" cy="19" r="19" fill="#F5F7FA"/>
<circle cx="19.0001" cy="19.0001" r="12.0909" fill="#19416E"/>
<path d="M18.9999 18.9999C18.0499 18.9999 17.2367 18.6617 16.5601 17.9851C15.8836 17.3086 15.5454 16.4954 15.5454 15.5454C15.5454 14.5954 15.8836 13.7821 16.5601 13.1056C17.2367 12.4291 18.0499 12.0908 18.9999 12.0908C19.9499 12.0908 20.7632 12.4291 21.4397 13.1056C22.1162 13.7821 22.4545 14.5954 22.4545 15.5454C22.4545 16.4954 22.1162 17.3086 21.4397 17.9851C20.7632 18.6617 19.9499 18.9999 18.9999 18.9999ZM12.0908 24.1817V23.4908C12.0908 23.0014 12.2169 22.5518 12.4691 22.1418C12.7213 21.7319 13.0558 21.4187 13.4726 21.2022C14.3651 20.756 15.2719 20.4215 16.1931 20.1986C17.1143 19.9758 18.0499 19.8641 18.9999 19.8635C19.9499 19.863 20.8855 19.9747 21.8067 20.1986C22.7279 20.4226 23.6348 20.7571 24.5272 21.2022C24.9446 21.4181 25.2794 21.7313 25.5316 22.1418C25.7838 22.5523 25.9096 23.002 25.909 23.4908V24.1817C25.909 24.6567 25.74 25.0635 25.402 25.402C25.0641 25.7406 24.6573 25.9096 24.1817 25.909H13.8181C13.3431 25.909 12.9366 25.74 12.5986 25.402C12.2607 25.0641 12.0914 24.6573 12.0908 24.1817Z" fill="#F5F7FA"/>
</svg>
