<svg width="29" height="29" viewBox="0 0 29 29" fill="none" xmlns="http://www.w3.org/2000/svg">
<path d="M27.5 9.83381V5.41619C27.5 4.24494 27.0347 3.12167 26.2065 2.29347C25.3783 1.46528 24.2551 1 23.0838 1H18.6662M18.6662 27.5H23.0838C24.2551 27.5 25.3783 27.0347 26.2065 26.2065C27.0347 25.3783 27.5 24.2551 27.5 23.0838V18.6662M1 18.6662V23.0838C1 24.2551 1.46528 25.3783 2.29347 26.2065C3.12167 27.0347 4.24494 27.5 5.41619 27.5H9.83381M9.83381 1H5.41619C4.24494 1 3.12167 1.46528 2.29347 2.29347C1.46528 3.12167 1 4.24494 1 5.41619V9.83381M10.5729 5.41619H6.70538C6.36346 5.41619 6.03555 5.55201 5.79378 5.79378C5.55201 6.03555 5.41619 6.36346 5.41619 6.70538V10.5729C5.41619 10.9149 5.55201 11.2428 5.79378 11.4845C6.03555 11.7263 6.36346 11.8621 6.70538 11.8621H10.5729C10.9149 11.8621 11.2428 11.7263 11.4845 11.4845C11.7263 11.2428 11.8621 10.9149 11.8621 10.5729V6.70538C11.8621 6.36346 11.7263 6.03555 11.4845 5.79378C11.2428 5.55201 10.9149 5.41619 10.5729 5.41619ZM10.5729 16.6106H6.70538C6.36346 16.6106 6.03555 16.7465 5.79378 16.9882C5.55201 17.23 5.41619 17.5579 5.41619 17.8998V21.7674C5.41619 22.1093 5.55201 22.4372 5.79378 22.679C6.03555 22.9208 6.36346 23.0566 6.70538 23.0566H10.5729C10.9149 23.0566 11.2428 22.9208 11.4845 22.679C11.7263 22.4372 11.8621 22.1093 11.8621 21.7674V17.8998C11.8621 17.5579 11.7263 17.23 11.4845 16.9882C11.2428 16.7465 10.9149 16.6106 10.5729 16.6106ZM21.7946 5.41619H17.9271C17.5851 5.41619 17.2572 5.55201 17.0155 5.79378C16.7737 6.03555 16.6379 6.36346 16.6379 6.70538V10.5729C16.6379 10.9149 16.7737 11.2428 17.0155 11.4845C17.2572 11.7263 17.5851 11.8621 17.9271 11.8621H21.7946C22.1365 11.8621 22.4644 11.7263 22.7062 11.4845C22.948 11.2428 23.0838 10.9149 23.0838 10.5729V6.70538C23.0838 6.36346 22.948 6.03555 22.7062 5.79378C22.4644 5.55201 22.1365 5.41619 21.7946 5.41619ZM21.7946 16.6379H17.9271C17.5851 16.6379 17.2572 16.7737 17.0155 17.0155C16.7737 17.2572 16.6379 17.5851 16.6379 17.9271V21.7946C16.6379 22.1365 16.7737 22.4644 17.0155 22.7062C17.2572 22.948 17.5851 23.0838 17.9271 23.0838H21.7946C22.1365 23.0838 22.4644 22.948 22.7062 22.7062C22.948 22.4644 23.0838 22.1365 23.0838 21.7946V17.9271C23.0838 17.5851 22.948 17.2572 22.7062 17.0155C22.4644 16.7737 22.1365 16.6379 21.7946 16.6379Z" stroke="#19416E" stroke-width="1.5" stroke-linecap="round" stroke-linejoin="round"/>
</svg>
