<svg width="36" height="36" viewBox="0 0 36 36" fill="none" xmlns="http://www.w3.org/2000/svg">
<circle cx="18" cy="18" r="18" fill="#E8F4FC"/>
<path d="M10.0354 25.2478V10.7517V15.0871V14.4959V25.2478ZM12.624 18.5175H17.8271C17.8478 18.3373 17.8844 18.1606 17.9368 17.9874C17.9893 17.8141 18.0525 17.6457 18.1263 17.4821H12.624V18.5175ZM12.624 22.6592H16.2304C16.4037 22.4729 16.588 22.3048 16.7834 22.155C16.9787 22.0052 17.1824 21.882 17.3943 21.7853C17.3791 21.7612 17.3653 21.7353 17.3529 21.7077C17.3411 21.6801 17.3311 21.6521 17.3228 21.6238H12.624V22.6592ZM9 26.2833V9.71631H25.567V15.9569C25.4185 15.7739 25.2612 15.6128 25.0948 15.4733C24.9291 15.3339 24.7414 15.2051 24.5315 15.0871V10.7517H10.0354V25.2478H15.225C15.2209 25.2713 15.2178 25.2955 15.2157 25.3203C15.2136 25.3438 15.2126 25.3673 15.2126 25.3907V26.2833H9ZM22.3416 21.1061C21.7755 21.1061 21.2889 20.9025 20.8816 20.4952C20.4743 20.0879 20.2707 19.6013 20.2707 19.0352C20.2707 18.4692 20.4743 17.9825 20.8816 17.5753C21.2889 17.168 21.7755 16.9644 22.3416 16.9644C22.9069 16.9644 23.3936 17.168 23.8015 17.5753C24.2088 17.9825 24.4124 18.4692 24.4124 19.0352C24.4124 19.6013 24.2088 20.0879 23.8015 20.4952C23.3943 20.9025 22.9076 21.1061 22.3416 21.1061ZM17.6821 26.2833V25.3514C17.6821 25.0304 17.7622 24.7391 17.9223 24.4775C18.0825 24.2158 18.3103 24.0281 18.6057 23.9142C19.189 23.6684 19.7923 23.4841 20.4157 23.3613C21.0397 23.2384 21.6817 23.177 22.3416 23.177C22.9739 23.177 23.6024 23.2384 24.2271 23.3613C24.8518 23.4841 25.4682 23.6684 26.0764 23.9142C26.3718 24.0288 26.5996 24.2165 26.7598 24.4775C26.9199 24.7391 27 25.0304 27 25.3514V26.2833H17.6821ZM12.624 14.3758H21.9429V13.3403H12.624V14.3758Z" fill="#19416E"/>
<path d="M10.0354 25.2478V10.7517M10.0354 25.2478V14.4959V15.0871V10.7517M10.0354 25.2478H15.225C15.2209 25.2713 15.2178 25.2955 15.2157 25.3203C15.2136 25.3438 15.2126 25.3673 15.2126 25.3907V26.2833H9V9.71631H25.567V15.9569C25.4185 15.7739 25.2612 15.6128 25.0948 15.4733C24.9291 15.3339 24.7414 15.2051 24.5315 15.0871V10.7517H10.0354M12.624 18.5175H17.8271C17.8478 18.3373 17.8844 18.1606 17.9368 17.9874C17.9893 17.8141 18.0525 17.6457 18.1263 17.4821H12.624V18.5175ZM12.624 22.6592H16.2304C16.4037 22.4729 16.588 22.3048 16.7834 22.155C16.9787 22.0052 17.1824 21.882 17.3943 21.7853C17.3791 21.7612 17.3653 21.7353 17.3529 21.7077C17.3411 21.6801 17.3311 21.6521 17.3228 21.6238H12.624V22.6592ZM22.3416 21.1061C21.7755 21.1061 21.2889 20.9025 20.8816 20.4952C20.4743 20.0879 20.2707 19.6013 20.2707 19.0352C20.2707 18.4692 20.4743 17.9825 20.8816 17.5753C21.2889 17.168 21.7755 16.9644 22.3416 16.9644C22.9069 16.9644 23.3936 17.168 23.8015 17.5753C24.2088 17.9825 24.4124 18.4692 24.4124 19.0352C24.4124 19.6013 24.2088 20.0879 23.8015 20.4952C23.3943 20.9025 22.9076 21.1061 22.3416 21.1061ZM17.6821 26.2833V25.3514C17.6821 25.0304 17.7622 24.7391 17.9223 24.4775C18.0825 24.2158 18.3103 24.0281 18.6057 23.9142C19.189 23.6684 19.7923 23.4841 20.4157 23.3613C21.0397 23.2384 21.6817 23.177 22.3416 23.177C22.9739 23.177 23.6024 23.2384 24.2271 23.3613C24.8518 23.4841 25.4682 23.6684 26.0764 23.9142C26.3718 24.0288 26.5996 24.2165 26.7598 24.4775C26.9199 24.7391 27 25.0304 27 25.3514V26.2833H17.6821ZM12.624 14.3758H21.9429V13.3403H12.624V14.3758Z" stroke="#19416E" stroke-width="0.2"/>
</svg>
